# xmcd
#
# Track frame offsets:
#	150
#	21567
#	39198
#	61696
#	76168
#	95553
#	114345
#	136592
#	151543
#	167650
#	180230
#	195255
#	211520
#	225615
#	244769
#	258413
#	279914
#
# Disc length: 3943 seconds
#
# Revision: 0
# Processed by: cddbd v1.5.2PL0 Copyright (c) Steve Scherf et al.
# Submitted via: audiograbber 1.83.01
#
DISCID=bd0f6511
DTITLE=Various Artist - Smooth FM - All Time Top 50 [CD 2 of 3) (2014)
DYEAR=2014
DGENRE=Easy Listening
TTITLE0=Bill Medley and Jennifer Warnes - (I've Had) The Time Of My Life
TTITLE1=Christopher Cross - Arthur's Theme (Best That You Can Do)
TTITLE2=Foreigner - I Want To Know What Love Is (Remastered LP Version)
TTITLE3=Jimmy Cliff - I Can See Clearly Now
TTITLE4=Bill Withers - Lean On Me
TTITLE5=Kenny Rogers and Dolly Parton - Islands In The Stream
TTITLE6=Toto - Africa
TTITLE7=Bertie Higgins - Key Largo
TTITLE8=Aretha Franklin - I Say A Little Prayer
TTITLE9=The Archies - Sugar Sugar
TTITLE10=Frankie Valli and The Four Seasons - December 1963 (Oh What A Night!)
TTITLE11=Earth Wind and Fire - September
TTITLE12=The Hues Corportation - Rock The Boat
TTITLE13=Dionne Warwick - Heartbreaker
TTITLE14=Love Affair - Everlasting Love
TTITLE15=Billy Paul - Me And Mrs Jones
TTITLE16=Axiom - Little Ray Of Sunshine
EXTD=
EXTT0=
EXTT1=
EXTT2=
EXTT3=
EXTT4=
EXTT5=
EXTT6=
EXTT7=
EXTT8=
EXTT9=
EXTT10=
EXTT11=
EXTT12=
EXTT13=
EXTT14=
EXTT15=
EXTT16=
PLAYORDER=
